<svg xmlns="http://www.w3.org/2000/svg" version="1.1" xmlns:xlink="http://www.w3.org/1999/xlink" xmlns:svgjs="http://svgjs.com/svgjs" width="1920" height="1080" preserveAspectRatio="none" viewBox="0 0 1920 1080"><g mask="url(&quot;#SvgjsMask1041&quot;)" fill="none"><rect width="1920" height="1080" x="0" y="0" fill="rgba(22, 160, 133, 1)"></rect><path d="M0,834.715C150.33,803.412,251.439,675.11,383.335,596.482C521.226,514.281,716.366,503.225,792.839,362.077C869.498,220.586,781.318,50.049,766.189,-110.161C750.142,-280.098,797.395,-466.6,701.268,-607.652C602.502,-752.577,428.13,-848.624,253.319,-862.726C87.686,-876.088,-47.676,-747.283,-199.765,-680.338C-329.628,-623.176,-460.768,-582.443,-574.913,-498.165C-715.573,-394.31,-907.572,-307.026,-938.464,-134.931C-969.276,36.722,-798.725,173.07,-723.658,330.484C-650.143,484.644,-641.912,683.147,-501.782,780.787C-360.906,878.947,-168.095,869.717,0,834.715" fill="#12806a"></path><path d="M1920 1845.2820000000002C2060.612 1855.741 2173.759 1733.271 2280.999 1641.725 2376.697 1560.032 2452.109 1461.3310000000001 2504.035 1346.72 2555.837 1232.382 2606.503 1107.674 2578.382 985.3389999999999 2550.942 865.9639999999999 2422.896 804.832 2355.902 702.289 2274.413 577.559 2280.286 378.07399999999996 2143.324 319.428 2009.277 262.03 1865.395 379.207 1730.4569999999999 434.477 1609.076 484.19399999999996 1496.784 542.114 1395.6689999999999 625.665 1277.191 723.563 1128.033 811.44 1093.114 961.112 1057.751 1112.686 1117.824 1280.212 1214.5030000000002 1402.19 1303.6399999999999 1514.653 1470.415 1514.149 1591.939 1590.473 1711.619 1665.6390000000001 1779.062 1834.799 1920 1845.2820000000002" fill="#1ac0a0"></path></g><defs><mask id="SvgjsMask1041"><rect width="1920" height="1080" fill="#ffffff"></rect></mask></defs></svg>