<svg xmlns="http://www.w3.org/2000/svg" version="1.1"
    xmlns:xlink="http://www.w3.org/1999/xlink"
    xmlns:svgjs="http://svgjs.com/svgjs" width="1440" height="560" preserveAspectRatio="none" viewBox="0 0 1440 560">
    <g mask="url(&quot;#SvgjsMask1065&quot;)" fill="none">
        <rect width="1440" height="560" x="0" y="0" fill="rgba(28, 100, 189, 1)"></rect>
        <path d="M0,357.949C65.929,346.033,123.643,315.985,182.494,283.967C246.06,249.383,313.897,220.963,357.684,163.349C408.038,97.094,443.153,18.828,447.17,-64.293C451.674,-157.504,453.465,-271.142,381.554,-330.618C308.247,-391.248,195.554,-329.233,102.565,-349.305C19.601,-367.213,-48.215,-465.456,-129.468,-440.927C-210.833,-416.365,-218.336,-301.618,-272.465,-236.092C-324.786,-172.754,-409.627,-139.256,-441.288,-63.448C-477.135,22.382,-500.091,126.191,-458.525,209.402C-417.089,292.352,-318.67,330.027,-230.461,358.604C-155.869,382.77,-77.159,371.895,0,357.949" fill="#12417b"></path>
        <path d="M1440 1205.274C1558.955 1211.025 1620.344 1060.7350000000001 1717.934 992.4739999999999 1810.416 927.7850000000001 1937.598 910.146 1998.121 814.885 2061.247 715.527 2076.791 586.751 2048.264 472.545 2020.818 362.664 1918.4940000000001 295.196 1846.478 207.784 1772.263 117.70299999999997 1731.583-18.91300000000001 1618.755-48.78499999999997 1505.839-78.67999999999995 1404.817 25.708999999999946 1293.599 61.40499999999997 1185.982 95.945 1056.805 78.97500000000002 975.636 157.62599999999998 892.951 237.74599999999998 869.47 362.222 864.444 477.247 859.713 585.523 889.645 693.405 948.24 784.579 1002.254 868.624 1102.901 901.4639999999999 1178.817 966.409 1270.321 1044.689 1319.721 1199.4589999999998 1440 1205.274" fill="#428ae3"></path>
    </g>
    <defs>
        <mask id="SvgjsMask1065">
            <rect width="1440" height="560" fill="#ffffff"></rect>
        </mask>
    </defs>
</svg>