<svg xmlns="http://www.w3.org/2000/svg" version="1.1" xmlns:xlink="http://www.w3.org/1999/xlink" xmlns:svgjs="http://svgjs.com/svgjs" width="1920" height="1080" preserveAspectRatio="none" viewBox="0 0 1920 1080"><g mask="url(&quot;#SvgjsMask1019&quot;)" fill="none"><rect width="1920" height="1080" x="0" y="0" fill="rgba(41, 128, 185, 1)"></rect><path d="M0,730.16C139.887,760.18,301.454,731.352,410.452,638.675C517.029,548.056,525.192,390.966,558.675,255.138C586.452,142.455,596.025,31.178,588.757,-84.65C580.898,-209.892,586.525,-343.086,514.682,-445.974C439.954,-552.993,312.632,-603.833,191.785,-653.161C59.209,-707.276,-78.859,-775.436,-218.868,-745.397C-362.154,-714.655,-477.271,-607.088,-566.126,-490.551C-651.556,-378.506,-687.817,-241.232,-709.434,-102.001C-731.259,38.564,-771.31,198.089,-691.309,315.71C-611.737,432.701,-432.307,411.107,-310.957,483.858C-195.203,553.254,-131.958,701.841,0,730.16" fill="#216694"></path><path d="M1920 1969.7939999999999C2095.63 1979.259 2281.554 1967.81 2427.042 1868.973 2571.172 1771.059 2642.727 1601.092 2703.247 1437.6970000000001 2760.317 1283.617 2804.004 1118.04 2764.2290000000003 958.6179999999999 2726.125 805.8969999999999 2617.312 678.971 2490.6369999999997 585.5409999999999 2378.863 503.101 2235.953 494.71500000000003 2099.581 468.40200000000004 1976.338 444.62199999999996 1857.305 436.22799999999995 1731.823 439.12800000000004 1562.747 443.03499999999997 1359.62 371.67100000000005 1237.1770000000001 488.331 1116.8519999999999 602.973 1159.2 806.7629999999999 1172.051 972.461 1182.851 1111.719 1261.588 1228.122 1304.853 1360.9279999999999 1355.108 1515.192 1331.592 1702.019 1446.903 1816.153 1567.182 1935.204 1751.011 1960.687 1920 1969.7939999999999" fill="#3c97d4"></path></g><defs><mask id="SvgjsMask1019"><rect width="1920" height="1080" fill="#ffffff"></rect></mask></defs></svg>